<svg width="64" height="64" viewBox="0 0 64 64" fill="none" xmlns="http://www.w3.org/2000/svg">
  <!-- Soil layers -->
  <rect x="8" y="20" width="48" height="10" fill="#8B6F47" opacity="0.6" rx="2"/>
  <line x1="10" y1="20" x2="54" y2="20" stroke="#6B5536" stroke-width="1"/>
  <rect x="8" y="32" width="48" height="10" fill="#A0826D" opacity="0.7" rx="2"/>
  <line x1="10" y1="32" x2="54" y2="32" stroke="#7A625D" stroke-width="1"/>
  <rect x="8" y="44" width="48" height="10" fill="#6B5739" opacity="0.8" rx="2"/>
  <!-- Particles in soil -->
  <circle cx="18" cy="25" r="1.5" fill="#D2B48C" opacity="0.7"/>
  <circle cx="28" cy="27" r="1.5" fill="#D2B48C" opacity="0.7"/>
  <circle cx="38" cy="26" r="1.5" fill="#D2B48C" opacity="0.7"/>
  <circle cx="48" cy="28" r="1.5" fill="#D2B48C" opacity="0.7"/>
  <!-- Roots -->
  <path d="M 24 42 Q 20 48 18 54" stroke="#654321" stroke-width="2" stroke-linecap="round"/>
  <path d="M 32 42 Q 32 48 32 54" stroke="#654321" stroke-width="2" stroke-linecap="round"/>
  <path d="M 40 42 Q 44 48 46 54" stroke="#654321" stroke-width="2" stroke-linecap="round"/>
  <!-- Nutrients indicator (dots) -->
  <circle cx="15" cy="37" r="1" fill="#90EE90" opacity="0.8"/>
  <circle cx="32" cy="38" r="1" fill="#90EE90" opacity="0.8"/>
  <circle cx="49" cy="36" r="1" fill="#90EE90" opacity="0.8"/>
</svg>