<svg width="64" height="64" viewBox="0 0 64 64" fill="none" xmlns="http://www.w3.org/2000/svg">
  <!-- Sun -->
  <circle cx="48" cy="16" r="6" fill="#FCD34D"/>
  <line x1="48" y1="4" x2="48" y2="8" stroke="#FCD34D" stroke-width="1.5" stroke-linecap="round"/>
  <line x1="48" y1="24" x2="48" y2="28" stroke="#FCD34D" stroke-width="1.5" stroke-linecap="round"/>
  <line x1="60" y1="16" x2="56" y2="16" stroke="#FCD34D" stroke-width="1.5" stroke-linecap="round"/>
  <line x1="36" y1="16" x2="40" y2="16" stroke="#FCD34D" stroke-width="1.5" stroke-linecap="round"/>
  <!-- Cloud -->
  <path d="M 16 30 Q 8 30 8 38 Q 8 46 16 46 L 36 46 Q 44 46 44 38 Q 44 30 36 30 Q 32 22 24 22 Q 16 22 16 30Z" fill="#E5E7EB" stroke="#D1D5DB" stroke-width="1.5"/>
  <!-- Rain drops -->
  <line x1="14" y1="46" x2="12" y2="54" stroke="#3B82F6" stroke-width="2" stroke-linecap="round" opacity="0.8"/>
  <line x1="24" y1="46" x2="22" y2="54" stroke="#3B82F6" stroke-width="2" stroke-linecap="round" opacity="0.8"/>
  <line x1="34" y1="46" x2="32" y2="54" stroke="#3B82F6" stroke-width="2" stroke-linecap="round" opacity="0.8"/>
  <!-- Temperature indicator -->
  <circle cx="50" cy="46" r="3" fill="none" stroke="#F97316" stroke-width="1.5"/>
  <line x1="50" y1="44" x2="50" y2="48" stroke="#F97316" stroke-width="1"/>
</svg>